<svg width="40" height="40" viewBox="0 0 40 40" fill="none" xmlns="http://www.w3.org/2000/svg">
<rect x="0.5" y="0.5" width="39" height="39" stroke="white"/>
<path fill-rule="evenodd" clip-rule="evenodd" d="M13.333 15C13.333 14.5397 13.7061 14.1666 14.1663 14.1666H25.833C26.2932 14.1666 26.6663 14.5397 26.6663 15C26.6663 15.4602 26.2932 15.8333 25.833 15.8333H14.1663C13.7061 15.8333 13.333 15.4602 13.333 15ZM13.3331 20C13.3331 19.5397 13.7062 19.1666 14.1665 19.1666H25.8331C26.2934 19.1666 26.6665 19.5397 26.6665 20C26.6665 20.4602 26.2934 20.8333 25.8331 20.8333H14.1665C13.7062 20.8333 13.3331 20.4602 13.3331 20ZM14.1665 24.1666C13.7062 24.1666 13.3331 24.5397 13.3331 25C13.3331 25.4602 13.7062 25.8333 14.1665 25.8333H25.8331C26.2934 25.8333 26.6665 25.4602 26.6665 25C26.6665 24.5397 26.2934 24.1666 25.8331 24.1666H14.1665Z" fill="white"/>
</svg>
