<svg width="80" height="81" viewBox="0 0 80 81" fill="none" xmlns="http://www.w3.org/2000/svg">
<rect y="0.833008" width="80" height="80" rx="12" fill="#64137B"/>
<path d="M45.079 39.815L58.579 29.315C58.8007 29.1425 59.0664 29.0358 59.3458 29.0069C59.6252 28.978 59.9071 29.0282 60.1594 29.1517C60.4117 29.2752 60.6243 29.467 60.7729 29.7054C60.9215 29.9438 61.0002 30.2191 61 30.5V51.5C61.0002 51.7809 60.9215 52.0562 60.7729 52.2946C60.6243 52.533 60.4117 52.7248 60.1594 52.8483C59.9071 52.9718 59.6252 53.022 59.3458 52.9931C59.0664 52.9642 58.8007 52.8575 58.579 52.685L45.079 42.185C44.8983 42.0448 44.7521 41.8651 44.6515 41.6597C44.5509 41.4544 44.4987 41.2287 44.4987 41C44.4987 40.7713 44.5509 40.5456 44.6515 40.3403C44.7521 40.1349 44.8983 39.9552 45.079 39.815ZM41.5 62H38.5V20H41.5V62ZM35.5 41C35.5 41.2286 35.4479 41.4541 35.3476 41.6595C35.2472 41.8648 35.1013 42.0446 34.921 42.185L21.421 52.685C21.1993 52.8575 20.9336 52.9642 20.6542 52.9931C20.3748 53.022 20.0929 52.9718 19.8406 52.8483C19.5883 52.7248 19.3757 52.533 19.2271 52.2946C19.0785 52.0562 18.9998 51.7809 19 51.5V30.5C18.9998 30.2191 19.0785 29.9438 19.2271 29.7054C19.3757 29.467 19.5883 29.2752 19.8406 29.1517C20.0929 29.0282 20.3748 28.978 20.6542 29.0069C20.9336 29.0358 21.1993 29.1425 21.421 29.315L34.921 39.815C35.1013 39.9554 35.2472 40.1352 35.3476 40.3405C35.4479 40.5459 35.5 40.7714 35.5 41ZM22 48.434L31.5565 41L22 33.566V48.434Z" fill="white"/>
</svg>
